<?xml version="1.0" encoding="utf-8"?>
<!-- Generator: Adobe Illustrator 17.1.0, SVG Export Plug-In . SVG Version: 6.00 Build 0)  -->
<!DOCTYPE svg PUBLIC "-//W3C//DTD SVG 1.1//EN" "http://www.w3.org/Graphics/SVG/1.1/DTD/svg11.dtd">
<svg version="1.1" id="Layer_1" xmlns="http://www.w3.org/2000/svg" xmlns:xlink="http://www.w3.org/1999/xlink" x="0px" y="0px"
	 viewBox="0 0 53.852 49.09" enable-background="new 0 0 53.852 49.09" xml:space="preserve">
<path d="M53.852,18.838c0-2.481-2.019-4.5-4.5-4.5H41.34C41.211,10.162,40.547,4.32,37.995,1.61C37.003,0.557,35.76,0,34.4,0H19.45
	c-1.359,0-2.603,0.557-3.595,1.61c-2.553,2.71-3.219,8.553-3.35,12.728H4.5c-2.481,0-4.5,2.019-4.5,4.5
	c0,2.285,1.718,4.157,3.927,4.442l5.331,24.609c0.001,0.003,0.001,0.005,0.002,0.008l0.002,0.011
	c0.001,0.004,0.003,0.007,0.004,0.01c0.035,0.158,0.098,0.304,0.179,0.438c0.009,0.015,0.015,0.031,0.024,0.045
	c0.08,0.124,0.181,0.233,0.293,0.328c0.021,0.018,0.04,0.035,0.062,0.051c0.114,0.087,0.24,0.158,0.377,0.209
	c0.024,0.009,0.049,0.015,0.073,0.023c0.14,0.045,0.287,0.075,0.442,0.076c0.003,0,0.006,0.002,0.01,0.002c0.001,0,0.003,0,0.005,0
	h32.379c0.001,0,0.003,0,0.005,0c0.003,0,0.005-0.001,0.008-0.001c0.156-0.001,0.304-0.032,0.445-0.077
	c0.024-0.008,0.048-0.013,0.072-0.022c0.137-0.051,0.262-0.122,0.377-0.209c0.022-0.017,0.042-0.034,0.063-0.052
	c0.112-0.095,0.212-0.203,0.293-0.327c0.01-0.015,0.016-0.032,0.025-0.047c0.08-0.134,0.142-0.279,0.177-0.436
	c0.001-0.004,0.004-0.007,0.005-0.011l0.003-0.012c0-0.002,0.001-0.005,0.002-0.007l5.34-24.609
	C52.132,22.996,53.852,21.124,53.852,18.838z M18.039,3.667C18.468,3.212,18.916,3,19.45,3H34.4c0.534,0,0.981,0.212,1.41,0.667
	c1.792,1.902,2.386,6.757,2.52,10.671H15.515C15.67,10.155,16.361,5.448,18.039,3.667z M7.008,23.338h4.1l0.758,5.253H8.146
	L7.008,23.338z M10.223,38.179l-1.427-6.588H12.3l0.951,6.588H10.223z M11.937,46.09l-1.064-4.911h2.811l0.709,4.911H11.937z
	 M14.139,23.338h4.131l0.379,5.253h-3.752L14.139,23.338z M15.331,31.591h3.535l0.475,6.588h-3.058L15.331,31.591z M17.424,46.09
	l-0.709-4.911h2.842l0.354,4.911H17.424z M25.42,46.09h-2.502l-0.354-4.911h2.857L25.42,46.09z M25.422,38.179h-3.074l-0.475-6.588
	h3.55L25.422,38.179z M21.657,28.591l-0.379-5.253h4.146l-0.001,5.253H21.657z M30.922,46.09H28.42l0.001-4.911h2.857L30.922,46.09z
	 M31.495,38.179h-3.073l0.001-6.588h3.549L31.495,38.179z M28.424,28.591l0.001-5.253h4.146l-0.381,5.253H28.424z M36.416,46.09
	H33.93l0.356-4.911h2.841L36.416,46.09z M37.561,38.179h-3.058l0.477-6.588h3.534L37.561,38.179z M35.198,28.591l0.381-5.253h4.131
	l-0.76,5.253H35.198z M41.903,46.09h-2.456l0.711-4.911h2.811L41.903,46.09z M43.62,38.179h-3.027l0.953-6.588h3.504L43.62,38.179z
	 M41.98,28.591l0.76-5.253h4.1l-1.14,5.253H41.98z M49.352,20.338H4.5c-0.827,0-1.5-0.673-1.5-1.5s0.673-1.5,1.5-1.5h44.852
	c0.827,0,1.5,0.673,1.5,1.5S50.179,20.338,49.352,20.338z"/>
</svg>
