<?xml version="1.0" encoding="utf-8"?>
<!-- Generator: Adobe Illustrator 17.1.0, SVG Export Plug-In . SVG Version: 6.00 Build 0)  -->
<!DOCTYPE svg PUBLIC "-//W3C//DTD SVG 1.1//EN" "http://www.w3.org/Graphics/SVG/1.1/DTD/svg11.dtd">
<svg version="1.1" id="Layer_1" xmlns="http://www.w3.org/2000/svg" xmlns:xlink="http://www.w3.org/1999/xlink" x="0px" y="0px"
	 viewBox="0 0 24.358 61.457" enable-background="new 0 0 24.358 61.457" xml:space="preserve">
<g>
	<g>
		<g>
			<path d="M8.712,61.332c0,0,0.075-0.172,0.214-0.493c0.134-0.323,0.282-0.805,0.494-1.411c0.236-0.599,0.388-1.361,0.609-2.221
				c0.216-0.861,0.476-1.828,0.61-2.907c0.168-1.071,0.351-2.231,0.544-3.458c0.101-1.234,0.207-2.536,0.317-3.882
				c0.119-1.345,0.249-2.732,0.207-4.152c0.003-1.416,0.006-2.854,0.008-4.292c-0.01-0.719,0.014-1.436-0.024-2.152
				c-0.06-0.716-0.119-1.428-0.178-2.136c-0.135-1.414-0.215-2.804-0.304-4.15c-0.08-1.346-0.03-2.651-0.13-3.885
				c-0.09-1.235-0.153-2.404-0.192-3.485c-0.179-4.322,0.247-6.032,0.247-6.032l0-0.005c0.004-0.052,0.062-0.091,0.13-0.089
				c0.056,0.002,0.101,0.033,0.113,0.072c0,0,0.654,1.618,1.46,5.935c0.207,1.078,0.41,2.249,0.603,3.489
				c0.234,1.238,0.229,2.559,0.314,3.919c0.025,1.363,0.064,2.771,0.049,4.201c0.001,0.715,0.002,1.435,0.003,2.158
				c-0.014,0.723-0.092,1.45-0.134,2.176c-0.095,1.451-0.19,2.903-0.284,4.331c-0.048,1.429-0.268,2.829-0.475,4.183
				c-0.205,1.354-0.376,2.663-0.586,3.9c-0.299,1.228-0.583,2.39-0.844,3.462c-0.225,1.075-0.571,2.041-0.863,2.898
				c-0.296,0.856-0.512,1.607-0.804,2.209c-0.268,0.604-0.459,1.083-0.62,1.398c-0.166,0.314-0.255,0.481-0.255,0.481
				c-0.025,0.048-0.097,0.071-0.159,0.051C8.722,61.432,8.693,61.379,8.712,61.332z"/>
		</g>
		<g>
			<path d="M8.852,23.336l-1.131-0.545c-0.119-0.057-2.935-1.426-5.174-3.378c-2.416-2.106-2.531-7.488-2.536-8.095L0,9.997
				l1.249,0.431c0.159,0.055,3.925,1.367,6.206,3.355c2.488,2.169,1.693,7.691,1.594,8.313L8.852,23.336z M1.962,12.714
				c0.176,1.778,0.666,4.292,1.812,5.291c1.187,1.035,2.591,1.91,3.564,2.465c0.102-1.752-0.008-4.318-1.11-5.279
				C4.995,14.116,3.185,13.236,1.962,12.714z"/>
		</g>
		<g>
			<path d="M9.574,34.065l-1.141-0.524c-0.12-0.055-2.962-1.369-5.238-3.278c-2.457-2.06-2.675-7.438-2.692-8.044l-0.037-1.321
				l1.257,0.406c0.16,0.052,3.951,1.291,6.27,3.235c2.529,2.121,1.84,7.657,1.753,8.281L9.574,34.065z M2.481,23.578
				c0.21,1.774,0.748,4.277,1.914,5.255c1.207,1.012,2.627,1.86,3.611,2.395c0.068-1.753-0.092-4.317-1.212-5.257
				C5.544,24.923,3.715,24.077,2.481,23.578z"/>
		</g>
		<g>
			<path d="M9.716,44.41l-1.151-0.502c-0.121-0.053-2.987-1.313-5.298-3.179c-2.495-2.013-2.814-7.387-2.842-7.993l-0.061-1.32
				l1.264,0.383c0.161,0.049,3.975,1.217,6.329,3.117c2.569,2.073,1.983,7.621,1.908,8.247L9.716,44.41z M2.428,34.057
				c0.243,1.77,0.828,4.263,2.012,5.218c1.229,0.992,2.663,1.812,3.655,2.328c0.035-1.754-0.172-4.316-1.31-5.234
				C5.515,35.345,3.672,34.534,2.428,34.057z"/>
		</g>
		<g>
			<path d="M15.115,21.336l-0.281-1.223c-0.141-0.614-1.312-6.069,1.022-8.403c2.14-2.139,5.807-3.707,5.962-3.772l1.217-0.515
				l0.079,1.319c0.036,0.606,0.29,5.983-1.977,8.249c-2.1,2.101-4.816,3.658-4.93,3.723L15.115,21.336z M21.263,10.268
				c-1.186,0.606-2.934,1.609-4.088,2.762c-1.034,1.034-0.968,3.603-0.747,5.343c0.933-0.619,2.274-1.588,3.387-2.702
				C20.895,14.592,21.21,12.052,21.263,10.268z"/>
		</g>
		<g>
			<path d="M11.163,15.164L10.251,14.3c-0.431-0.408-4.196-4.078-3.579-7.141c0.562-2.79,2.617-5.925,2.705-6.057L10.105,0
				l0.796,1.054c0.344,0.456,3.345,4.539,2.747,7.51c-0.551,2.736-1.865,5.368-1.921,5.478L11.163,15.164z M10.204,3.357
				C9.6,4.443,8.795,6.076,8.503,7.528C8.24,8.83,9.557,10.73,10.615,11.965c0.401-0.964,0.92-2.369,1.202-3.769
				C12.09,6.842,11.073,4.769,10.204,3.357z"/>
		</g>
		<g>
			<path d="M15.596,31.982l-0.205-1.239c-0.103-0.622-0.935-6.138,1.538-8.324c2.268-2.003,6.025-3.341,6.184-3.397l1.246-0.439
				l-0.002,1.322c-0.001,0.607-0.08,5.989-2.482,8.112c-2.225,1.967-5.033,3.354-5.151,3.412L15.596,31.982z M22.414,21.315
				c-1.221,0.532-3.026,1.425-4.249,2.505c-1.1,0.971-1.191,3.538-1.076,5.287c0.97-0.561,2.368-1.445,3.549-2.489
				C21.778,25.61,22.25,23.094,22.414,21.315z"/>
		</g>
		<g>
			<path d="M15.631,43.092l-0.211-1.238c-0.106-0.621-0.962-6.134,1.502-8.331c2.259-2.013,6.01-3.367,6.169-3.424l1.244-0.444
				l0.004,1.322c0.002,0.607-0.053,5.989-2.447,8.123c-2.217,1.976-5.018,3.376-5.136,3.435L15.631,43.092z M22.403,32.394
				c-1.218,0.537-3.02,1.437-4.238,2.523c-1.095,0.976-1.176,3.543-1.054,5.292c0.968-0.565,2.362-1.456,3.538-2.504
				C21.785,36.693,22.246,34.174,22.403,32.394z"/>
		</g>
	</g>
	<path fill="#FFFFFF" d="M1.962,12.714c0.176,1.778,0.666,4.292,1.812,5.291c1.187,1.035,2.591,1.91,3.564,2.465
		c0.102-1.752-0.008-4.318-1.11-5.279C4.995,14.116,3.185,13.236,1.962,12.714z"/>
	<path fill="#FFFFFF" d="M2.481,23.578c0.21,1.774,0.748,4.277,1.914,5.255c1.207,1.012,2.627,1.86,3.611,2.395
		c0.068-1.753-0.092-4.317-1.212-5.257C5.544,24.923,3.715,24.077,2.481,23.578z"/>
	<path fill="#FFFFFF" d="M2.428,34.057c0.243,1.77,0.828,4.263,2.012,5.218c1.229,0.992,2.663,1.812,3.655,2.328
		c0.035-1.754-0.172-4.316-1.31-5.234C5.515,35.345,3.672,34.534,2.428,34.057z"/>
	<path fill="#FFFFFF" d="M21.263,10.268c-1.186,0.606-2.934,1.609-4.088,2.762c-1.034,1.034-0.968,3.603-0.747,5.343
		c0.933-0.619,2.274-1.588,3.387-2.702C20.895,14.592,21.21,12.052,21.263,10.268z"/>
	<path fill="#FFFFFF" d="M10.204,3.357C9.6,4.443,8.795,6.076,8.503,7.528C8.24,8.83,9.557,10.73,10.615,11.965
		c0.401-0.964,0.92-2.369,1.202-3.769C12.09,6.842,11.073,4.769,10.204,3.357z"/>
	<path fill="#FFFFFF" d="M22.414,21.315c-1.221,0.532-3.026,1.425-4.249,2.505c-1.1,0.971-1.191,3.538-1.076,5.287
		c0.97-0.561,2.368-1.445,3.549-2.489C21.778,25.61,22.25,23.094,22.414,21.315z"/>
	<path fill="#FFFFFF" d="M22.403,32.394c-1.218,0.537-3.02,1.437-4.238,2.523c-1.095,0.976-1.176,3.543-1.054,5.292
		c0.968-0.565,2.362-1.456,3.538-2.504C21.785,36.693,22.246,34.174,22.403,32.394z"/>
</g>
</svg>
