<?xml version="1.0" encoding="utf-8"?>
<!-- Generator: Adobe Illustrator 17.1.0, SVG Export Plug-In . SVG Version: 6.00 Build 0)  -->
<!DOCTYPE svg PUBLIC "-//W3C//DTD SVG 1.1//EN" "http://www.w3.org/Graphics/SVG/1.1/DTD/svg11.dtd">
<svg version="1.1" id="Layer_1" xmlns="http://www.w3.org/2000/svg" xmlns:xlink="http://www.w3.org/1999/xlink" x="0px" y="0px"
	 viewBox="0 0 22.545 60.625" enable-background="new 0 0 22.545 60.625" xml:space="preserve">
<g>
	<path d="M18.821,1.998c0.238,0,0.439,0.18,0.464,0.418l1.258,12.046c0.002,0.016,0.003,0.032,0.003,0.048
		c0,5.867-3.945,8.549-7.787,9.146l1.077,34.488c0.004,0.126-0.043,0.249-0.131,0.34c-0.088,0.091-0.209,0.142-0.335,0.142H9.176
		c-0.126,0-0.247-0.051-0.335-0.142c-0.088-0.091-0.135-0.213-0.131-0.34l1.078-34.488C5.945,23.06,2,20.377,2,14.51
		c0-0.016,0.001-0.032,0.003-0.048L3.26,2.417c0.025-0.239,0.226-0.418,0.464-0.418c0.006,0,0.012,0,0.018,0
		c0.246,0.01,0.442,0.208,0.449,0.454L4.516,14.51c0,3.962,3.393,6.032,5.383,6.567l0.908-18.634C10.818,2.195,11.024,2,11.273,2
		c0.249,0,0.454,0.195,0.466,0.444l0.908,18.641c1.988-0.524,5.382-2.585,5.383-6.588l0.324-12.046
		c0.007-0.246,0.203-0.444,0.449-0.454C18.809,1.998,18.815,1.998,18.821,1.998 M18.821-0.002c-0.027,0-0.072,0.001-0.099,0.002
		c-1.292,0.05-2.333,1.104-2.368,2.399L16.03,14.444c0,0.018-0.001,0.036-0.001,0.054c0,1.548-0.718,2.625-1.538,3.35L13.737,2.347
		C13.672,1.031,12.59,0,11.273,0c-1.317,0-2.4,1.031-2.464,2.347L8.054,17.833c-0.82-0.724-1.538-1.794-1.538-3.322
		c0-0.018,0-0.036-0.001-0.054L6.191,2.399C6.156,1.104,5.115,0.051,3.82,0.001C3.794,0,3.75-0.001,3.725-0.001
		c-1.267,0-2.322,0.95-2.453,2.211L0.013,14.254C0.006,14.323,0,14.441,0,14.51c0,6.215,3.737,9.516,7.737,10.725L6.71,58.082
		c-0.021,0.664,0.232,1.317,0.694,1.794c0.462,0.477,1.108,0.75,1.771,0.75h4.193c0.664,0,1.309-0.273,1.771-0.75
		c0.462-0.477,0.715-1.131,0.694-1.795l-1.026-32.845c4-1.21,7.737-4.51,7.737-10.725c0-0.07-0.006-0.189-0.014-0.259L21.274,2.208
		C21.142,0.948,20.088-0.002,18.821-0.002L18.821-0.002z"/>
	<path fill="#FFFFFF" d="M18.821,1.998c0.238,0,0.439,0.18,0.464,0.418l1.258,12.046c0.002,0.016,0.003,0.032,0.003,0.048
		c0,5.867-3.945,8.549-7.787,9.146l1.077,34.488c0.004,0.126-0.043,0.249-0.131,0.34c-0.088,0.091-0.209,0.142-0.335,0.142H9.176
		c-0.126,0-0.247-0.051-0.335-0.142c-0.088-0.091-0.135-0.213-0.131-0.34l1.078-34.488C5.945,23.06,2,20.377,2,14.51
		c0-0.016,0.001-0.032,0.003-0.048L3.26,2.417c0.025-0.239,0.226-0.418,0.464-0.418c0.006,0,0.012,0,0.018,0
		c0.246,0.01,0.442,0.208,0.449,0.454L4.516,14.51c0,3.962,3.393,6.032,5.383,6.567l0.908-18.634C10.818,2.195,11.024,2,11.273,2
		c0.249,0,0.454,0.195,0.466,0.444l0.908,18.641c1.988-0.524,5.382-2.585,5.383-6.588l0.324-12.046
		c0.007-0.246,0.203-0.444,0.449-0.454C18.809,1.998,18.815,1.998,18.821,1.998"/>
</g>
</svg>
