<?xml version="1.0" encoding="utf-8"?>
<!-- Generator: Adobe Illustrator 17.1.0, SVG Export Plug-In . SVG Version: 6.00 Build 0)  -->
<!DOCTYPE svg PUBLIC "-//W3C//DTD SVG 1.1//EN" "http://www.w3.org/Graphics/SVG/1.1/DTD/svg11.dtd">
<svg version="1.1" id="Layer_1" xmlns="http://www.w3.org/2000/svg" xmlns:xlink="http://www.w3.org/1999/xlink" x="0px" y="0px"
	 viewBox="0 0 34.874 58.798" enable-background="new 0 0 34.874 58.798" xml:space="preserve">
<g>
	<path fill="#FFFFFF" d="M31.874,55.798H3V22.568l1.156-0.871l1.754,1.321c0.535,0.402,1.27,0.402,1.805,0l1.754-1.321l1.754,1.321
		c0.535,0.402,1.27,0.402,1.805,0l1.754-1.321l1.754,1.321c0.535,0.402,1.271,0.402,1.805,0l1.753-1.32l1.754,1.32
		c0.535,0.402,1.27,0.402,1.805,0l1.754-1.321l1.754,1.321c0.535,0.402,1.27,0.402,1.805,0l1.754-1.321l1.156,0.871V55.798z"/>
	<g>
		<path d="M34.276,20.622l-2.656-2c-0.119-0.089-0.25-0.151-0.383-0.201c0-0.011,0.002-0.021,0.002-0.032
			c0-2.828-1.4-5.463-3.747-7.048c-0.316-0.214-0.66-0.349-1.025-0.415c0.946-1.563,0.873-3.305,0.859-3.519l-0.147-2.205
			l-2.18,0.366C24.764,5.607,22.671,6,21.352,7.668c-1.04,1.316-1.196,2.902-1.208,3.636c-0.284-0.055-0.574-0.094-0.875-0.094
			c-0.003,0-0.005,0.001-0.007,0.001l0.659-3.363c0.691-3.53-1.753-6.991-5.448-7.714C14.017,0.045,13.554,0,13.094,0
			C9.875,0,7.109,2.197,6.517,5.225L5.733,9.227c-0.042,0.098-0.076,0.201-0.097,0.31C5.615,9.644,5.608,9.75,5.61,9.854
			l-0.85,4.339c-0.031,0.081-0.059,0.164-0.076,0.252c-0.016,0.085-0.021,0.168-0.023,0.252l-0.716,3.658
			c-0.244,0.035-0.484,0.112-0.692,0.268l-2.656,2C0.222,20.905,0,21.349,0,21.82v35.478c0,0.829,0.672,1.5,1.5,1.5h31.874
			c0.828,0,1.5-0.671,1.5-1.5V21.82C34.874,21.349,34.652,20.905,34.276,20.622z M22.921,8.908c0.88-1.112,2.408-1.369,2.408-1.369
			s0.103,1.547-0.777,2.659s-2.408,1.369-2.408,1.369S22.041,10.021,22.921,8.908z M18.553,14.828
			c0.169-0.199,0.348-0.391,0.546-0.566c0.04-0.035,0.058-0.051,0.169-0.051c0.27,0,0.688,0.123,1.133,0.252
			c0.683,0.199,1.457,0.425,2.336,0.425c0.943,0,1.753-0.378,2.403-0.682c0.237-0.111,0.581-0.271,0.762-0.317
			c1.465,1.033,2.336,2.707,2.336,4.5c0,0.529-0.078,1.039-0.219,1.522l-1.712-1.289c-0.535-0.402-1.27-0.402-1.805,0l-1.754,1.321
			l-1.754-1.321c-0.535-0.402-1.271-0.402-1.805,0l-1.619,1.219L18.553,14.828z M13.094,3c0.267,0,0.536,0.026,0.802,0.079
			c2.072,0.406,3.454,2.287,3.081,4.194l-2.164,11.053c-0.328-0.007-0.657,0.089-0.933,0.297l-1.754,1.321l-1.754-1.321
			c-0.535-0.402-1.27-0.402-1.805,0l-1.754,1.321l-0.106-0.08l0.66-3.37l1.562,0.303c0.096,0.019,0.192,0.028,0.287,0.028
			c0.704,0,1.332-0.498,1.471-1.215c0.157-0.813-0.374-1.601-1.188-1.758l-1.555-0.301l0.384-1.963l1.553,0.301
			c0.097,0.019,0.192,0.028,0.287,0.028c0.704,0,1.332-0.498,1.471-1.215c0.157-0.813-0.374-1.6-1.188-1.758l-1.547-0.3L9.46,5.801
			C9.778,4.178,11.307,3,13.094,3z M31.874,55.798H3V22.568l1.156-0.871l1.754,1.321c0.535,0.402,1.27,0.402,1.805,0l1.754-1.321
			l1.754,1.321c0.535,0.402,1.27,0.402,1.805,0l1.754-1.321l1.754,1.321c0.535,0.402,1.271,0.402,1.805,0l1.753-1.32l1.754,1.32
			c0.535,0.402,1.27,0.402,1.805,0l1.754-1.321l1.754,1.321c0.535,0.402,1.27,0.402,1.805,0l1.754-1.321l1.156,0.871V55.798z"/>
		<path d="M23.034,37.5l-12.6,6.684c-0.731,0.388-1.01,1.296-0.622,2.028c0.27,0.508,0.789,0.797,1.326,0.797
			c0.237,0,0.478-0.057,0.702-0.175l12.6-6.684c0.731-0.388,1.01-1.296,0.622-2.028C24.674,37.39,23.768,37.113,23.034,37.5z"/>
		<path d="M23.034,30.261l-12.6,6.684c-0.731,0.388-1.01,1.296-0.622,2.028c0.27,0.508,0.789,0.797,1.326,0.797
			c0.237,0,0.478-0.057,0.702-0.175l12.6-6.684c0.731-0.388,1.01-1.296,0.622-2.028C24.674,30.151,23.768,29.874,23.034,30.261z"/>
	</g>
	<path fill="#FFFFFF" d="M22.921,8.908c0.88-1.112,2.408-1.369,2.408-1.369s0.103,1.547-0.777,2.659s-2.408,1.369-2.408,1.369
		S22.041,10.021,22.921,8.908z"/>
	<path fill="#FFFFFF" d="M18.553,14.828c0.169-0.199,0.348-0.391,0.546-0.566c0.04-0.035,0.058-0.051,0.169-0.051
		c0.27,0,0.688,0.123,1.133,0.252c0.683,0.199,1.457,0.425,2.336,0.425c0.943,0,1.753-0.378,2.403-0.682
		c0.237-0.111,0.581-0.271,0.762-0.317c1.465,1.033,2.336,2.707,2.336,4.5c0,0.529-0.078,1.039-0.219,1.522l-1.712-1.289
		c-0.535-0.402-1.27-0.402-1.805,0l-1.754,1.321l-1.754-1.321c-0.535-0.402-1.271-0.402-1.805,0l-1.619,1.219L18.553,14.828z"/>
	<path fill="#FFFFFF" d="M13.094,3c0.267,0,0.536,0.026,0.802,0.079c2.072,0.406,3.454,2.287,3.081,4.194l-2.164,11.053
		c-0.328-0.007-0.657,0.089-0.933,0.297l-1.754,1.321l-1.754-1.321c-0.535-0.402-1.27-0.402-1.805,0l-1.754,1.321l-0.106-0.08
		l0.66-3.37l1.562,0.303c0.096,0.019,0.192,0.028,0.287,0.028c0.704,0,1.332-0.498,1.471-1.215c0.157-0.813-0.374-1.601-1.188-1.758
		l-1.555-0.301l0.384-1.963l1.553,0.301c0.097,0.019,0.192,0.028,0.287,0.028c0.704,0,1.332-0.498,1.471-1.215
		c0.157-0.813-0.374-1.6-1.188-1.758l-1.547-0.3L9.46,5.801C9.778,4.178,11.307,3,13.094,3z"/>
</g>
</svg>
