<?xml version="1.0" encoding="utf-8"?>
<!-- Generator: Adobe Illustrator 17.1.0, SVG Export Plug-In . SVG Version: 6.00 Build 0)  -->
<!DOCTYPE svg PUBLIC "-//W3C//DTD SVG 1.1//EN" "http://www.w3.org/Graphics/SVG/1.1/DTD/svg11.dtd">
<svg version="1.1" id="Layer_1" xmlns="http://www.w3.org/2000/svg" xmlns:xlink="http://www.w3.org/1999/xlink" x="0px" y="0px"
	 viewBox="0 0 34.45 57.772" enable-background="new 0 0 34.45 57.772" xml:space="preserve">
<g>
	<path fill="#FFFFFF" d="M30.355,23.217c-0.456,0.944-2.086,1.155-2.734,1.967c-0.651,0.815-0.496,2.451-1.311,3.102
		c-0.811,0.648-2.371,0.135-3.315,0.591c-0.929,0.448-1.498,1.991-2.527,2.225c-0.09,0.021-0.182,0.03-0.275,0.03
		c-0.935,0-1.998-0.942-2.967-0.942c-0.97,0-2.033,0.941-2.968,0.941c-0.093,0-0.185-0.009-0.275-0.03
		c-1.03-0.234-1.598-1.777-2.527-2.225c-0.944-0.456-2.504,0.057-3.315-0.591c-0.815-0.651-0.66-2.287-1.311-3.102
		C6.18,24.371,4.55,24.16,4.094,23.216c-0.448-0.929,0.398-2.333,0.164-3.363c-0.227-0.997-1.605-1.894-1.605-2.96
		c0-1.066,1.378-1.963,1.605-2.961c0.234-1.03-0.612-2.434-0.164-3.364C4.55,9.624,6.181,9.413,6.829,8.602
		C7.48,7.787,7.325,6.151,8.14,5.5c0.811-0.648,2.37-0.135,3.315-0.591c0.929-0.448,1.498-1.991,2.527-2.225
		c0.09-0.021,0.182-0.03,0.275-0.03c0.935,0,1.998,0.942,2.967,0.942c0.97,0,2.033-0.941,2.968-0.941
		c0.093,0,0.185,0.009,0.275,0.03c1.03,0.234,1.598,1.777,2.527,2.225c0.944,0.456,2.504-0.057,3.315,0.591
		c0.815,0.651,0.66,2.287,1.311,3.102c0.648,0.811,2.278,1.022,2.734,1.966c0.448,0.929-0.398,2.333-0.164,3.363
		c0.227,0.997,1.605,1.894,1.605,2.96c0,1.066-1.378,1.963-1.605,2.961C29.957,20.883,30.804,22.288,30.355,23.217z"/>
	<g>
		<path d="M32.834,20.468c0.071-0.095,0.155-0.204,0.221-0.288c0.555-0.711,1.394-1.786,1.394-3.287
			c0-1.501-0.839-2.576-1.394-3.287c-0.066-0.085-0.151-0.193-0.221-0.288c0.023-0.125,0.055-0.274,0.08-0.388
			c0.188-0.871,0.472-2.187-0.168-3.514c-0.646-1.339-1.862-1.94-2.666-2.337c-0.101-0.05-0.23-0.114-0.339-0.171
			c-0.032-0.12-0.067-0.263-0.093-0.373c-0.209-0.87-0.524-2.184-1.681-3.108c-1.154-0.922-2.503-0.939-3.396-0.95
			c-0.116-0.001-0.265-0.003-0.391-0.008c-0.079-0.092-0.168-0.202-0.238-0.288c-0.569-0.698-1.428-1.754-2.886-2.085
			C20.776,0.032,20.486,0,20.193,0c-1.053,0-1.936,0.413-2.58,0.714c-0.114,0.053-0.265,0.124-0.387,0.176
			c-0.123-0.052-0.273-0.123-0.387-0.176C16.193,0.413,15.31,0,14.257,0c-0.293,0-0.584,0.032-0.864,0.096
			c-1.458,0.331-2.317,1.387-2.886,2.085c-0.07,0.085-0.159,0.195-0.238,0.287c-0.126,0.005-0.275,0.007-0.39,0.008
			c-0.893,0.011-2.242,0.028-3.396,0.95C5.327,4.35,5.011,5.664,4.802,6.533C4.776,6.644,4.742,6.787,4.709,6.907
			C4.601,6.964,4.471,7.028,4.37,7.078C3.566,7.475,2.35,8.076,1.704,9.415c-0.64,1.327-0.356,2.643-0.169,3.514
			c0.025,0.115,0.057,0.263,0.08,0.389c-0.071,0.095-0.155,0.204-0.221,0.288C0.839,14.317,0,15.392,0,16.892
			c0,1.501,0.839,2.576,1.394,3.287c0.066,0.085,0.151,0.193,0.221,0.288c-0.023,0.125-0.055,0.274-0.08,0.388
			c-0.188,0.871-0.472,2.187,0.168,3.514c0.646,1.339,1.862,1.94,2.666,2.337c0.101,0.05,0.23,0.114,0.339,0.171
			c0.032,0.12,0.067,0.263,0.093,0.373c0.209,0.87,0.524,2.184,1.681,3.108c0.43,0.343,0.887,0.561,1.338,0.699L3.638,54.777
			c-0.061,0.346,0.018,0.703,0.22,0.991c0.202,0.289,0.51,0.485,0.857,0.546l8.155,1.438c0.078,0.014,0.156,0.02,0.232,0.02
			c0.632,0,1.192-0.453,1.305-1.096l2.818-15.983l2.818,15.983c0.113,0.644,0.673,1.096,1.305,1.096c0.076,0,0.154-0.006,0.232-0.02
			l8.155-1.438c0.347-0.061,0.655-0.257,0.857-0.546c0.202-0.288,0.281-0.645,0.22-0.991l-4.182-23.719
			c0.45-0.139,0.907-0.356,1.336-0.699c1.157-0.924,1.473-2.238,1.682-3.108c0.027-0.111,0.061-0.253,0.093-0.373
			c0.109-0.057,0.238-0.121,0.339-0.171c0.804-0.397,2.02-0.998,2.666-2.337c0.64-1.327,0.356-2.643,0.169-3.514
			C32.89,20.742,32.858,20.593,32.834,20.468z M12.024,54.907L6.483,53.93l3.952-22.414c0.024,0.029,0.051,0.062,0.073,0.088
			c0.569,0.698,1.428,1.754,2.886,2.085c0.28,0.064,0.571,0.096,0.864,0.096c0.568,0,1.082-0.123,1.541-0.281L12.024,54.907z
			 M22.426,54.907l-3.774-21.403c0.458,0.158,0.972,0.281,1.54,0.281c0.293,0,0.584-0.032,0.864-0.096
			c1.458-0.331,2.317-1.387,2.886-2.085c0.021-0.026,0.049-0.059,0.073-0.089l3.952,22.415L22.426,54.907z M30.355,23.217
			c-0.456,0.944-2.086,1.155-2.734,1.967c-0.651,0.815-0.496,2.451-1.311,3.102c-0.811,0.648-2.371,0.135-3.315,0.591
			c-0.929,0.448-1.498,1.991-2.527,2.225c-0.09,0.021-0.182,0.03-0.275,0.03c-0.935,0-1.998-0.942-2.967-0.942
			c-0.97,0-2.033,0.941-2.968,0.941c-0.093,0-0.185-0.009-0.275-0.03c-1.03-0.234-1.598-1.777-2.527-2.225
			c-0.944-0.456-2.504,0.057-3.315-0.591c-0.815-0.651-0.66-2.287-1.311-3.102C6.18,24.371,4.55,24.16,4.094,23.216
			c-0.448-0.929,0.398-2.333,0.164-3.363c-0.227-0.997-1.605-1.894-1.605-2.96c0-1.066,1.378-1.963,1.605-2.961
			c0.234-1.03-0.612-2.434-0.164-3.364C4.55,9.624,6.181,9.413,6.829,8.602C7.48,7.787,7.325,6.151,8.14,5.5
			c0.811-0.648,2.37-0.135,3.315-0.591c0.929-0.448,1.498-1.991,2.527-2.225c0.09-0.021,0.182-0.03,0.275-0.03
			c0.935,0,1.998,0.942,2.967,0.942c0.97,0,2.033-0.941,2.968-0.941c0.093,0,0.185,0.009,0.275,0.03
			c1.03,0.234,1.598,1.777,2.527,2.225c0.944,0.456,2.504-0.057,3.315,0.591c0.815,0.651,0.66,2.287,1.311,3.102
			c0.648,0.811,2.278,1.022,2.734,1.966c0.448,0.929-0.398,2.333-0.164,3.363c0.227,0.997,1.605,1.894,1.605,2.96
			c0,1.066-1.378,1.963-1.605,2.961C29.957,20.883,30.804,22.288,30.355,23.217z"/>
		<path d="M17.225,8.169c-4.811,0-8.724,3.913-8.724,8.724c0,4.81,3.913,8.723,8.724,8.723c4.81,0,8.723-3.913,8.723-8.723
			C25.948,12.082,22.035,8.169,17.225,8.169z M17.225,22.962c-3.347,0-6.07-2.723-6.07-6.069c0-3.347,2.723-6.07,6.07-6.07
			c3.347,0,6.069,2.723,6.069,6.07C23.294,20.239,20.572,22.962,17.225,22.962z"/>
	</g>
	<path fill="#FFFFFF" d="M22.426,54.907l-3.774-21.403c0.458,0.158,0.972,0.281,1.54,0.281c0.293,0,0.584-0.032,0.864-0.096
		c1.458-0.331,2.317-1.387,2.886-2.085c0.021-0.026,0.049-0.059,0.073-0.089l3.952,22.415L22.426,54.907z"/>
	<path fill="#FFFFFF" d="M12.024,54.907L6.483,53.93l3.952-22.414c0.024,0.029,0.051,0.062,0.073,0.088
		c0.569,0.698,1.428,1.754,2.886,2.085c0.28,0.064,0.571,0.096,0.864,0.096c0.568,0,1.082-0.123,1.541-0.281L12.024,54.907z"/>
</g>
</svg>
